<?xml version="1.0" encoding="UTF-8"?>
<!DOCTYPE svg PUBLIC "-//W3C//DTD SVG 1.1//EN" "http://www.w3.org/Graphics/SVG/1.1/DTD/svg11.dtd">
<svg xmlns="http://www.w3.org/2000/svg" version="1.1" width="198px" height="334px" style="shape-rendering:geometricPrecision; text-rendering:geometricPrecision; image-rendering:optimizeQuality; fill-rule:evenodd; clip-rule:evenodd" xmlns:xlink="http://www.w3.org/1999/xlink">
<g><path style="opacity:0.999" fill="#251613" d="M 126.5,22.5 C 127.072,25.2436 128.738,26.0769 131.5,25C 132.823,24.1841 133.489,23.0174 133.5,21.5C 133.833,20.5 134.5,19.8333 135.5,19.5C 138.889,17.78 142.556,17.1134 146.5,17.5C 150.887,21.763 153.887,26.9296 155.5,33C 155.01,35.5028 153.677,37.5028 151.5,39C 148.145,40.1176 144.978,41.6176 142,43.5C 142.011,45.8846 142.511,48.218 143.5,50.5C 142.844,51.6216 142.511,52.9549 142.5,54.5C 142.585,56.3328 143.252,57.6661 144.5,58.5C 144.833,58.5 145.167,58.5 145.5,58.5C 148.544,60.0114 151.878,60.678 155.5,60.5C 155.833,61.5 156.5,62.1667 157.5,62.5C 158.43,66.3998 158.763,70.3998 158.5,74.5C 158.16,77.6748 156.493,79.8415 153.5,81C 147.5,81.3333 141.5,81.6667 135.5,82C 133.403,84.5527 131.07,86.886 128.5,89C 122.353,91.5742 116.353,94.4075 110.5,97.5C 108.348,98.0768 108.015,99.2435 109.5,101C 119.828,101.5 130.161,101.666 140.5,101.5C 141.82,104.899 141.82,108.399 140.5,112C 137.086,112.297 133.753,112.964 130.5,114C 124.723,119.614 118.056,123.781 110.5,126.5C 106.835,125.003 103.502,123.003 100.5,120.5C 97.8403,123.328 94.6736,125.328 91,126.5C 83.6143,123.225 76.7809,119.058 70.5,114C 67.5755,113.012 64.5755,112.346 61.5,112C 60.5399,108.27 60.2065,104.437 60.5,100.5C 63.5,100.5 66.5,100.5 69.5,100.5C 73.1515,101.165 76.9848,101.499 81,101.5C 85.229,101.49 89.0623,100.823 92.5,99.5C 84.9287,95.04 77.262,90.54 69.5,86C 68.2567,84.8455 67.2567,83.5122 66.5,82C 60.1667,81.6667 53.8333,81.3333 47.5,81C 45.0718,79.9817 43.7385,78.1483 43.5,75.5C 43.3345,71.4862 43.5012,67.4862 44,63.5C 45.045,62.6266 45.8783,61.6266 46.5,60.5C 49.0487,60.6657 51.7154,60.3323 54.5,59.5C 56.0296,59.3601 57.0296,58.6935 57.5,57.5C 57.8333,57.5 58.1667,57.5 58.5,57.5C 59.4767,54.7131 59.81,51.7131 59.5,48.5C 59.2865,46.8561 59.6198,45.3561 60.5,44C 56.5311,42.0156 52.5311,40.0156 48.5,38C 47.0564,36.874 46.3898,35.374 46.5,33.5C 47.8263,27.5041 50.493,22.1707 54.5,17.5C 56.9102,15.2322 59.5769,14.8989 62.5,16.5C 63.1667,17.8333 64.1667,18.8333 65.5,19.5C 68.0738,20.6613 70.2404,22.328 72,24.5C 74.8224,22.3475 77.6558,20.1808 80.5,18C 71.619,7.89626 74.119,2.06292 88,0.5C 89.1667,0.833333 90.3333,1.16667 91.5,1.5C 97.769,13.4722 103.936,13.4722 110,1.5C 115.324,0.3735 120.324,1.3735 125,4.5C 125.707,6.08059 126.54,7.58059 127.5,9C 126.083,12.2493 124.083,15.0827 121.5,17.5C 122.882,19.5486 124.548,21.2153 126.5,22.5 Z M 109.5,17.5 C 109.683,22.8582 106.85,26.1915 101,27.5C 95.6962,26.8601 92.1962,24.0268 90.5,19C 93.3812,20.9165 96.7145,22.0832 100.5,22.5C 102.923,22.4057 105.256,21.9057 107.5,21C 108.823,20.1841 109.489,19.0174 109.5,17.5 Z M 96.5,31.5 C 116.309,32.376 124.142,42.7093 120,62.5C 114.881,75.4769 105.714,79.9769 92.5,76C 85.037,71.2468 81.037,64.4134 80.5,55.5C 80.4176,43.6118 85.7509,35.6118 96.5,31.5 Z M 57.5,64.5 C 59.5323,67.7122 61.199,71.2122 62.5,75C 58.9738,74.9544 55.4738,74.4544 52,73.5C 51.0114,68.5255 52.8447,65.5255 57.5,64.5 Z M 142.5,64.5 C 148.732,64.9356 151.065,68.2689 149.5,74.5C 146.421,74.2601 143.421,74.5934 140.5,75.5C 140.094,74.4425 140.094,73.1092 140.5,71.5C 141.924,69.4855 142.59,67.1522 142.5,64.5 Z M 88.5,116.5 C 91.1662,116.066 92.3329,117.066 92,119.5C 89.3422,120.694 88.1756,119.694 88.5,116.5 Z M 109.5,116.5 C 112.166,116.066 113.333,117.066 113,119.5C 110.342,120.694 109.176,119.694 109.5,116.5 Z"/></g>
<g><path style="opacity:0.2" fill="#332622" d="M 62.5,16.5 C 64.5,16.5 65.5,17.5 65.5,19.5C 64.1667,18.8333 63.1667,17.8333 62.5,16.5 Z"/></g>
<g><path style="opacity:1" fill="#2b1c19" d="M 146.5,17.5 C 142.556,17.1134 138.889,17.78 135.5,19.5C 137.444,16.9893 140.111,15.656 143.5,15.5C 145.038,15.4534 146.038,16.1201 146.5,17.5 Z"/></g>
<g><path style="opacity:0.365" fill="#291e1a" d="M 133.5,21.5 C 133.489,23.0174 132.823,24.1841 131.5,25C 128.738,26.0769 127.072,25.2436 126.5,22.5C 127.482,23.1408 128.482,23.8075 129.5,24.5C 130.852,23.4756 132.185,22.4756 133.5,21.5 Z"/></g>
<g><path style="opacity:0.804" fill="#2c1f1c" d="M 59.5,48.5 C 59.81,51.7131 59.4767,54.7131 58.5,57.5C 57.2888,54.285 57.6221,51.285 59.5,48.5 Z"/></g>
<g><path style="opacity:0.608" fill="#2d201c" d="M 143.5,50.5 C 143.279,53.2788 143.612,55.9455 144.5,58.5C 143.252,57.6661 142.585,56.3328 142.5,54.5C 142.511,52.9549 142.844,51.6216 143.5,50.5 Z"/></g>
<g><path style="opacity:0.839" fill="#2c1c1a" d="M 155.5,60.5 C 151.878,60.678 148.544,60.0114 145.5,58.5C 145.435,58.0618 145.601,57.7284 146,57.5C 148.74,58.2822 151.574,58.7822 154.5,59C 155.056,59.3826 155.389,59.8826 155.5,60.5 Z"/></g>
<g><path style="opacity:1" fill="#2a1c19" d="M 57.5,57.5 C 57.0296,58.6935 56.0296,59.3601 54.5,59.5C 51.7154,60.3323 49.0487,60.6657 46.5,60.5C 46.6107,59.8826 46.944,59.3826 47.5,59C 50.8536,58.5448 54.1869,58.0448 57.5,57.5 Z"/></g>
<g><path style="opacity:0.075" fill="#342723" d="M 155.5,60.5 C 156.833,60.5 157.5,61.1667 157.5,62.5C 156.5,62.1667 155.833,61.5 155.5,60.5 Z"/></g>
<g><path style="opacity:0.039" fill="#2d211f" d="M 157.5,62.5 C 158.794,64.0478 159.461,66.0478 159.5,68.5C 159.495,70.6965 159.162,72.6965 158.5,74.5C 158.763,70.3998 158.43,66.3998 157.5,62.5 Z"/></g>
<g><path style="opacity:0.58" fill="#2c201d" d="M 46.5,60.5 C 45.8783,61.6266 45.045,62.6266 44,63.5C 43.5012,67.4862 43.3345,71.4862 43.5,75.5C 42.353,71.3537 42.1864,67.0204 43,62.5C 43.8159,61.1772 44.9826,60.5106 46.5,60.5 Z"/></g>
<g><path style="opacity:0.443" fill="#2d1f1d" d="M 142.5,64.5 C 142.59,67.1522 141.924,69.4855 140.5,71.5C 140.41,68.8478 141.076,66.5145 142.5,64.5 Z"/></g>
<g><path style="opacity:0.439" fill="#2c1e1b" d="M 41.5,111.5 C 41.5,108.167 41.5,104.833 41.5,101.5C 33.1122,101.227 24.7788,101.56 16.5,102.5C 16.6107,101.883 16.944,101.383 17.5,101C 25.8267,100.5 34.16,100.334 42.5,100.5C 42.815,104.371 42.4816,108.038 41.5,111.5 Z"/></g>
<g><path style="opacity:0.91" fill="#2a1b19" d="M 92.5,99.5 C 89.0623,100.823 85.229,101.49 81,101.5C 76.9848,101.499 73.1515,101.165 69.5,100.5C 77.2948,100.618 84.9615,100.284 92.5,99.5 Z"/></g>
<g><path style="opacity:0.69" fill="#2c1e1b" d="M 110.5,97.5 C 109.105,98.6477 109.272,99.6477 111,100.5C 116.624,100.805 122.457,100.471 128.5,99.5C 132.635,100.109 136.635,100.776 140.5,101.5C 130.161,101.666 119.828,101.5 109.5,101C 108.015,99.2435 108.348,98.0768 110.5,97.5 Z"/></g>
<g><path style="opacity:1" fill="#251613" d="M 41.5,111.5 C 40.5,111.5 39.5,111.5 38.5,111.5C 37.5514,110.848 36.3847,110.514 35,110.5C 33.3189,110.608 32.1522,111.275 31.5,112.5C 26.4889,112.666 21.4889,112.499 16.5,112C 14.9419,111.79 13.6085,111.29 12.5,110.5C 13.5014,107.828 14.5014,105.162 15.5,102.5C 15.8333,102.5 16.1667,102.5 16.5,102.5C 24.7788,101.56 33.1122,101.227 41.5,101.5C 41.5,104.833 41.5,108.167 41.5,111.5 Z"/></g>
<g><path style="opacity:0.854" fill="#251715" d="M 47.5,100.5 C 50.2773,100.786 53.1106,101.12 56,101.5C 56.4983,104.817 56.665,108.15 56.5,111.5C 46.7727,113.457 43.7727,109.791 47.5,100.5 Z"/></g>
<g><path style="opacity:1" fill="#251714" d="M 179.5,100.5 C 182.314,101.95 184.814,103.284 187,104.5C 188.128,106.345 188.628,108.345 188.5,110.5C 187.209,110.263 186.209,110.596 185.5,111.5C 177.001,112.367 168.334,112.367 159.5,111.5C 159.5,107.833 159.5,104.167 159.5,100.5C 166.167,100.5 172.833,100.5 179.5,100.5 Z"/></g>
<g><path style="opacity:1" fill="#2d1e1b" d="M 179.5,100.5 C 186.671,100.254 190.171,103.588 190,110.5C 188.644,111.38 187.144,111.714 185.5,111.5C 186.209,110.596 187.209,110.263 188.5,110.5C 188.628,108.345 188.128,106.345 187,104.5C 184.814,103.284 182.314,101.95 179.5,100.5 Z"/></g>
<g><path style="opacity:1" fill="#251613" d="M 154.5,109.5 C 151.609,110.403 148.609,110.736 145.5,110.5C 145.5,107.167 145.5,103.833 145.5,100.5C 148.5,101.833 151.5,101.833 154.5,100.5C 154.5,103.5 154.5,106.5 154.5,109.5 Z"/></g>
<g><path style="opacity:0.782" fill="#2d1f1d" d="M 15.5,102.5 C 14.5014,105.162 13.5014,107.828 12.5,110.5C 11.9033,110.265 11.5699,109.765 11.5,109C 12,107.5 12.5,106 13,104.5C 13.4169,103.244 14.2502,102.577 15.5,102.5 Z"/></g>
<g><path style="opacity:0.247" fill="#2b1f1c" d="M 38.5,111.5 C 36.0504,111.298 33.717,111.631 31.5,112.5C 32.1522,111.275 33.3189,110.608 35,110.5C 36.3847,110.514 37.5514,110.848 38.5,111.5 Z"/></g>
<g><path style="opacity:0.176" fill="#2d211e" d="M 154.5,109.5 C 153.486,110.765 151.986,111.431 150,111.5C 148.293,111.492 146.793,111.158 145.5,110.5C 148.609,110.736 151.609,110.403 154.5,109.5 Z"/></g>
<g><path style="opacity:0.998" fill="#251613" d="M 144.5,160.5 C 144.619,165.004 145.952,169.004 148.5,172.5C 149.782,175.936 149.782,179.269 148.5,182.5C 147.34,186.681 146.34,191.015 145.5,195.5C 143.655,200.186 141.155,204.52 138,208.5C 132.631,214.036 127.131,219.37 121.5,224.5C 120.349,229.65 120.183,234.984 121,240.5C 121.278,241.416 121.778,242.082 122.5,242.5C 122.611,243.117 122.944,243.617 123.5,244C 134.88,244.811 146.213,244.645 157.5,243.5C 159.863,244.17 162.196,244.837 164.5,245.5C 164.427,247.027 165.094,248.027 166.5,248.5C 167.686,249.961 167.686,251.295 166.5,252.5C 154.819,253.079 143.153,253.913 131.5,255C 129.942,255.21 128.609,255.71 127.5,256.5C 122.493,259.233 122.16,262.566 126.5,266.5C 127.833,267.833 129.167,267.833 130.5,266.5C 133.167,266.5 135.833,266.5 138.5,266.5C 141.159,266.917 143.492,267.917 145.5,269.5C 144.038,273.757 142.038,277.757 139.5,281.5C 134.88,282.493 130.214,282.827 125.5,282.5C 124.566,283.568 124.232,284.901 124.5,286.5C 127.85,286.335 131.183,286.502 134.5,287C 133.139,288.584 132.472,290.418 132.5,292.5C 130.833,292.5 129.167,292.5 127.5,292.5C 127.5,293.5 127.5,294.5 127.5,295.5C 128.5,295.5 129.5,295.5 130.5,295.5C 130.5,296.167 130.5,296.833 130.5,297.5C 130.046,300.253 128.379,301.92 125.5,302.5C 126.485,304.098 126.651,305.765 126,307.5C 122.667,313.5 119.333,319.5 116,325.5C 115.311,326.357 114.478,327.023 113.5,327.5C 112.13,303.181 111.13,278.848 110.5,254.5C 111.161,252.866 111.494,251.033 111.5,249C 111.579,245.549 110.913,242.382 109.5,239.5C 109.5,237.167 109.5,234.833 109.5,232.5C 110.803,229.645 110.803,226.645 109.5,223.5C 108.893,223.624 108.56,223.957 108.5,224.5C 103.167,225.833 97.8333,225.833 92.5,224.5C 92.5,226.5 92.5,228.5 92.5,230.5C 91.2057,232.048 90.5391,234.048 90.5,236.5C 90.5046,238.696 90.838,240.696 91.5,242.5C 91.5,243.5 91.5,244.5 91.5,245.5C 90.6909,247.292 90.1909,249.292 90,251.5C 89.5001,264.829 89.3334,278.163 89.5,291.5C 88.6697,303.658 88.3363,315.658 88.5,327.5C 87.1861,326.687 86.0195,325.687 85,324.5C 81.3728,318.08 77.8728,311.58 74.5,305C 77.1494,302.563 76.4828,301.23 72.5,301C 71.5,299.333 70.5,297.667 69.5,296C 71.6193,295.902 73.286,295.069 74.5,293.5C 72.1667,292.833 69.8333,292.167 67.5,291.5C 66.7515,289.668 65.7515,288.001 64.5,286.5C 68.4454,285.509 72.4454,285.176 76.5,285.5C 76.5,284.5 76.5,283.5 76.5,282.5C 71.8215,282.666 67.1548,282.499 62.5,282C 59.5112,277.856 57.1779,273.356 55.5,268.5C 55.6082,267.558 55.9415,266.725 56.5,266C 63.6678,266.289 70.5011,266.123 77,265.5C 77.8184,262.773 77.6517,260.106 76.5,257.5C 71.8897,256.507 67.2231,255.84 62.5,255.5C 62.0825,254.778 61.4158,254.278 60.5,254C 54.5092,253.501 48.5092,253.334 42.5,253.5C 41.8333,253.5 41.1667,253.5 40.5,253.5C 38.2972,253.396 36.2972,252.73 34.5,251.5C 35.1037,245.572 38.4371,242.906 44.5,243.5C 55.7821,244.478 67.1154,244.812 78.5,244.5C 78.8583,241.311 79.525,238.311 80.5,235.5C 81.6433,232.024 81.8099,228.358 81,224.5C 80.6174,223.944 80.1174,223.611 79.5,223.5C 74.887,219.061 70.0536,214.727 65,210.5C 59.9006,204.595 56.4006,197.929 54.5,190.5C 53.7875,183.857 53.4542,177.191 53.5,170.5C 54.4568,164.926 56.4568,159.926 59.5,155.5C 60.9063,155.027 61.573,154.027 61.5,152.5C 62.8333,151.833 63.8333,150.833 64.5,149.5C 70.4559,142.35 78.1226,138.016 87.5,136.5C 88.2349,133.298 89.4015,130.298 91,127.5C 91.3333,127.833 91.6667,128.167 92,128.5C 94.7614,126.619 97.7614,125.286 101,124.5C 104.559,126.52 108.392,127.853 112.5,128.5C 112.248,131.32 112.748,133.986 114,136.5C 124.358,138.515 133.024,143.515 140,151.5C 141.761,154.411 143.261,157.411 144.5,160.5 Z M 128.5,189.5 C 127.659,187.621 127.325,185.621 127.5,183.5C 125.394,176.75 122.061,170.75 117.5,165.5C 117.047,164.542 116.381,163.708 115.5,163C 111.08,162.232 106.747,162.398 102.5,163.5C 98.2708,165.557 94.4375,168.223 91,171.5C 86.7388,185.722 91.9055,192.389 106.5,191.5C 110.791,189.158 112.291,185.491 111,180.5C 109.961,179.29 108.794,178.29 107.5,177.5C 106.081,176.549 104.415,176.216 102.5,176.5C 104.073,179.373 103.74,182.039 101.5,184.5C 94.8518,180.552 94.8518,176.552 101.5,172.5C 108.77,170.747 113.77,173.413 116.5,180.5C 116.5,183.167 116.5,185.833 116.5,188.5C 113.405,193.963 108.905,196.296 103,195.5C 96.055,196.328 91.055,193.661 88,187.5C 87.1667,184.167 86.3333,180.833 85.5,177.5C 86.3845,174.065 87.5512,170.732 89,167.5C 93.2951,163.04 97.7951,158.706 102.5,154.5C 103.946,152.382 104.613,150.049 104.5,147.5C 117.532,150.116 127.032,157.449 133,169.5C 137.572,194.969 126.905,209.636 101,213.5C 74.2878,209.706 63.6211,194.706 69,168.5C 73.2633,160.447 79.43,154.281 87.5,150C 95.8267,146.159 96.4933,147.159 89.5,153C 85.7277,155.104 82.2277,157.604 79,160.5C 76.566,163.795 74.8993,167.462 74,171.5C 74.9692,179.778 75.9692,188.111 77,196.5C 79.5797,203.873 84.7464,208.04 92.5,209C 105.112,211.386 115.946,208.22 125,199.5C 126.782,196.368 127.948,193.035 128.5,189.5 Z"/></g>
<g><path style="opacity:0.565" fill="#302422" d="M 64.5,149.5 C 63.8333,150.833 62.8333,151.833 61.5,152.5C 61.5,150.5 62.5,149.5 64.5,149.5 Z"/></g>
<g><path style="opacity:0.38" fill="#342623" d="M 61.5,152.5 C 61.573,154.027 60.9063,155.027 59.5,155.5C 59.427,153.973 60.0937,152.973 61.5,152.5 Z"/></g>
<g><path style="opacity:0.671" fill="#291d1c" d="M 117.5,165.5 C 116.244,165.539 115.244,165.039 114.5,164C 110.262,163.692 106.262,163.525 102.5,163.5C 106.747,162.398 111.08,162.232 115.5,163C 116.381,163.708 117.047,164.542 117.5,165.5 Z"/></g>
<g><path style="opacity:1" fill="#2d1e1c" d="M 144.5,160.5 C 146.74,164.098 148.074,168.098 148.5,172.5C 145.952,169.004 144.619,165.004 144.5,160.5 Z"/></g>
<g><path style="opacity:1" fill="#261a17" d="M 107.5,177.5 C 108.794,178.29 109.961,179.29 111,180.5C 112.291,185.491 110.791,189.158 106.5,191.5C 107.445,190.007 108.445,188.507 109.5,187C 109.845,183.805 109.179,180.638 107.5,177.5 Z"/></g>
<g><path style="opacity:0.947" fill="#2d1f1c" d="M 53.5,170.5 C 53.4542,177.191 53.7875,183.857 54.5,190.5C 53.0033,186.777 52.3367,182.777 52.5,178.5C 52.5025,175.645 52.8359,172.978 53.5,170.5 Z"/></g>
<g><path style="opacity:0.318" fill="#2c221e" d="M 127.5,183.5 C 127.325,185.621 127.659,187.621 128.5,189.5C 127.307,189.03 126.64,188.03 126.5,186.5C 126.52,185.274 126.853,184.274 127.5,183.5 Z"/></g>
<g><path style="opacity:1" fill="#291e1a" d="M 116.5,180.5 C 117.748,181.334 118.415,182.667 118.5,184.5C 118.415,186.333 117.748,187.666 116.5,188.5C 116.5,185.833 116.5,183.167 116.5,180.5 Z"/></g>
<g><path style="opacity:0.796" fill="#2e201d" d="M 148.5,182.5 C 148.924,187.032 147.924,191.365 145.5,195.5C 146.34,191.015 147.34,186.681 148.5,182.5 Z"/></g>
<g><path style="opacity:0.875" fill="#2f211d" d="M 108.5,224.5 C 108.56,223.957 108.893,223.624 109.5,223.5C 110.803,226.645 110.803,229.645 109.5,232.5C 109.806,229.615 109.473,226.948 108.5,224.5 Z"/></g>
<g><path style="opacity:0.771" fill="#312320" d="M 79.5,223.5 C 80.1174,223.611 80.6174,223.944 81,224.5C 81.8099,228.358 81.6433,232.024 80.5,235.5C 80.1492,231.517 79.8159,227.517 79.5,223.5 Z"/></g>
<g><path style="opacity:0.869" fill="#2b1d17" d="M 92.5,230.5 C 91.6403,234.434 91.307,238.434 91.5,242.5C 90.838,240.696 90.5046,238.696 90.5,236.5C 90.5391,234.048 91.2057,232.048 92.5,230.5 Z"/></g>
<g><path style="opacity:0.459" fill="#322421" d="M 121.5,224.5 C 121.303,230.545 121.637,236.545 122.5,242.5C 121.778,242.082 121.278,241.416 121,240.5C 120.183,234.984 120.349,229.65 121.5,224.5 Z"/></g>
<g><path style="opacity:0.856" fill="#2c1e1b" d="M 109.5,239.5 C 110.913,242.382 111.579,245.549 111.5,249C 111.494,251.033 111.161,252.866 110.5,254.5C 110.497,249.473 110.164,244.473 109.5,239.5 Z"/></g>
<g><path style="opacity:0.28" fill="#2f2322" d="M 164.5,245.5 C 165.906,245.973 166.573,246.973 166.5,248.5C 165.094,248.027 164.427,247.027 164.5,245.5 Z"/></g>
<g><path style="opacity:1" fill="#2b1e1b" d="M 91.5,245.5 C 91.1847,261.005 90.5181,276.339 89.5,291.5C 89.3334,278.163 89.5001,264.829 90,251.5C 90.1909,249.292 90.6909,247.292 91.5,245.5 Z"/></g>
<g><path style="opacity:0.298" fill="#2f211e" d="M 34.5,251.5 C 36.2972,252.73 38.2972,253.396 40.5,253.5C 39.3991,254.598 38.0657,254.765 36.5,254C 35.244,253.583 34.5774,252.75 34.5,251.5 Z"/></g>
<g><path style="opacity:0.939" fill="#2c1d1a" d="M 42.5,253.5 C 48.5092,253.334 54.5092,253.501 60.5,254C 61.4158,254.278 62.0825,254.778 62.5,255.5C 55.6368,255.362 48.9702,254.696 42.5,253.5 Z"/></g>
<g><path style="opacity:0.965" fill="#2b1c19" d="M 166.5,252.5 C 164.935,254.719 162.935,255.052 160.5,253.5C 149.342,254.984 138.342,255.984 127.5,256.5C 128.609,255.71 129.942,255.21 131.5,255C 143.153,253.913 154.819,253.079 166.5,252.5 Z"/></g>
<g><path style="opacity:0.884" fill="#2b211e" d="M 130.5,266.5 C 129.167,267.833 127.833,267.833 126.5,266.5C 127.833,265.167 129.167,265.167 130.5,266.5 Z"/></g>
<g><path style="opacity:0.906" fill="#281e1b" d="M 145.5,269.5 C 143.492,267.917 141.159,266.917 138.5,266.5C 140.628,265.371 142.961,265.204 145.5,266C 146.791,267.292 146.791,268.458 145.5,269.5 Z"/></g>
<g><path style="opacity:0.99" fill="#281c18" d="M 125.5,282.5 C 125.5,283.5 125.5,284.5 125.5,285.5C 129.167,285.5 132.833,285.5 136.5,285.5C 136.416,288.682 135.083,291.015 132.5,292.5C 132.472,290.418 133.139,288.584 134.5,287C 131.183,286.502 127.85,286.335 124.5,286.5C 124.232,284.901 124.566,283.568 125.5,282.5 Z"/></g>
<g><path style="opacity:0.306" fill="#29211c" d="M 130.5,297.5 C 130.5,296.833 130.5,296.167 130.5,295.5C 130.897,294.475 131.563,294.308 132.5,295C 131.934,295.995 131.267,296.828 130.5,297.5 Z"/></g>
</svg>
